<svg width="121" height="50" viewBox="0 0 121 50" fill="none" xmlns="http://www.w3.org/2000/svg">
<path d="M105.061 50H120.405V5.71326L105.061 25.397V50Z" fill="black"/>
<path d="M120.411 0V1.41046L93.3682 35.9905L81.6324 21.0185V50H66.2883V0.015143L82.4458 0L93.3509 13.9575L104.234 0H120.409H120.411Z" fill="black"/>
<path d="M66.2883 0.0151062H48.9474L38.1353 13.8861H38.1331L29.4649 25.0032L9.98233 49.9978H27.3232L38.1375 36.1268L48.6337 49.5932L48.9496 49.9978H66.2904L46.8079 25.0054L66.2883 0.0151062Z" fill="black"/>
<path d="M0.199951 0.0151062V49.9978L19.6825 25.0054L0.199951 0.0151062Z" fill="#FF0000"/>
<path d="M27.321 0.0151062H9.98016L27.8273 22.7577L36.5128 11.6579L27.321 0.0151062Z" fill="black"/>
</svg>
